HIERARCHY
ROOT Hips
{
	OFFSET 52.072800 -5.242115 91.629997
	CHANNELS 6 Xposition Yposition Zposition Xrotation Yrotation Zrotation
	JOINT spine
	{
		OFFSET 0.000000 -0.393702 6.846367
		CHANNELS 3 Xrotation Yrotation Zrotation
		JOINT spine1
		{
			OFFSET 0.000000 -0.000001 9.496208
			CHANNELS 3 Xrotation Yrotation Zrotation
			JOINT spine2
			{
				OFFSET 0.000000 -0.000001 9.099091
				CHANNELS 3 Xrotation Yrotation Zrotation
				JOINT Neck
				{
					OFFSET 0.000000 -1.113784 23.361198
					CHANNELS 3 Xrotation Yrotation Zrotation
					JOINT Head
					{
						OFFSET 0.000000 -0.000001 7.058014
						CHANNELS 3 Xrotation Yrotation Zrotation
						End Site
						{
							OFFSET 0.000000 5.634187 17.084396
						}
					}
				}
				JOINT RightShoulder
				{
					OFFSET -3.831360 0.533490 9.826309
					CHANNELS 3 Xrotation Yrotation Zrotation
					JOINT RightArm
					{
						OFFSET 0.000000 -0.000002 12.888100
						CHANNELS 3 Xrotation Yrotation Zrotation
						JOINT RightArmRoll
						{
							OFFSET 0.000000 -0.000001 6.506165
							CHANNELS 3 Xrotation Yrotation Zrotation
							JOINT RightForeArm
							{
								OFFSET 0.000000 -0.000003 18.950104
								CHANNELS 3 Xrotation Yrotation Zrotation
								JOINT RightForeArmRoll
								{
									OFFSET 0.000000 -0.000001 7.300919
									CHANNELS 3 Xrotation Yrotation Zrotation
									JOINT RightHand
									{
										OFFSET 0.000000 -0.000002 14.651398
										CHANNELS 3 Xrotation Yrotation Zrotation
										End Site
										{
											OFFSET 0.000000 0.000000 0.100006
										}
									}
								}
							}
						}
					}
				}
				JOINT LeftShoulder
				{
					OFFSET 3.831360 0.533490 9.826309
					CHANNELS 3 Xrotation Yrotation Zrotation
					JOINT LeftArm
					{
						OFFSET 0.000000 -0.000002 12.888100
						CHANNELS 3 Xrotation Yrotation Zrotation
						JOINT LeftArmRoll
						{
							OFFSET 0.000000 -0.000001 6.506165
							CHANNELS 3 Xrotation Yrotation Zrotation
							JOINT LeftForeArm
							{
								OFFSET 0.000000 -0.000003 18.950104
								CHANNELS 3 Xrotation Yrotation Zrotation
								JOINT LeftForeArmRoll
								{
									OFFSET 0.000000 -0.000001 7.300919
									CHANNELS 3 Xrotation Yrotation Zrotation
									JOINT LeftHand
									{
										OFFSET 0.000000 -0.000002 14.651398
										CHANNELS 3 Xrotation Yrotation Zrotation
										End Site
										{
											OFFSET 0.000000 0.000000 0.100006
										}
									}
								}
							}
						}
					}
				}
			}
		}
	}
	JOINT RightUpLeg
	{
		OFFSET -6.068371 0.933477 -1.112778
		CHANNELS 3 Xrotation Yrotation Zrotation
		JOINT RightUpLegRoll
		{
			OFFSET 0.000000 -0.000003 17.179604
			CHANNELS 3 Xrotation Yrotation Zrotation
			JOINT RightLeg
			{
				OFFSET 0.000000 0.000003 -21.274300
				CHANNELS 3 Xrotation Yrotation Zrotation
				JOINT RightLegRoll
				{
					OFFSET 0.000000 -0.000003 21.343903
					CHANNELS 3 Xrotation Yrotation Zrotation
					JOINT RightFoot
					{
						OFFSET 0.000000 -0.000003 17.765198
						CHANNELS 3 Xrotation Yrotation Zrotation
						JOINT RightToeBase
						{
							OFFSET 0.000000 -0.000002 14.850792
							CHANNELS 3 Xrotation Yrotation Zrotation
							End Site
							{
								OFFSET 0.006294 0.829004 7.192139
							}
						}
					}
				}
			}
		}
	}
	JOINT LeftUpLeg
	{
		OFFSET 6.068371 0.933477 -1.112778
		CHANNELS 3 Xrotation Yrotation Zrotation
		JOINT LeftUpLegRoll
		{
			OFFSET 0.000000 -0.000003 17.179703
			CHANNELS 3 Xrotation Yrotation Zrotation
			JOINT LeftLeg
			{
				OFFSET 0.000000 -0.000003 21.274208
				CHANNELS 3 Xrotation Yrotation Zrotation
				JOINT LeftLegRoll
				{
					OFFSET 0.000000 -0.000003 21.541199
					CHANNELS 3 Xrotation Yrotation Zrotation
					JOINT LeftFoot
					{
						OFFSET 0.000000 -0.000003 17.567902
						CHANNELS 3 Xrotation Yrotation Zrotation
						JOINT LeftToeBase
						{
							OFFSET 0.000000 -0.000003 14.850800
							CHANNELS 3 Xrotation Yrotation Zrotation
							End Site
							{
								OFFSET -0.028210 0.829004 7.192139
							}
						}
					}
				}
			}
		}
	}
}
MOTION
Frames: 7
Frame Time: 0.041667
52.960400 -5.282654 91.563507 -2.389766 0.633093 -4.261089 -1.702464 -0.089743 -0.119461 0.597729 -0.177458 -0.231045 2.242801 -0.180347 -0.228974 22.995364 0.979919 -0.727237 -6.485662 -0.047676 -0.720960 17.644778 -73.748148 17.356402 -22.065636 -97.743852 -3.423473 0.000002 -0.000000 -0.000002 14.245301 -8.266770 -0.207866 -0.000001 0.000011 -3.000000 -5.000234 -7.998933 0.000136 5.564143 67.541630 -5.222416 -31.916033 107.805206 12.205870 -0.000001 0.000000 0.000002 5.239760 13.921770 -0.297107 -0.000003 -0.000011 3.003949 -5.000242 7.998742 -0.000172 -2.030135 -176.092440 1.220765 -179.999991 0.000005 -1.053005 175.007383 -2.983663 -0.262534 0.000002 0.000000 0.042986 68.751824 6.902266 2.116541 25.456849 -7.355620 -0.000003 3.373616 174.876844 -0.836500 -0.000005 -0.000004 -1.152370 -4.250610 1.963528 0.175540 -0.000002 -0.000003 -0.037587 68.969126 -6.896930 -2.098989 25.456959 7.355615 -0.000011 
52.966702 -5.278195 91.561897 -2.390236 0.638477 -4.267819 -1.704022 -0.090203 -0.120471 0.594616 -0.178791 -0.233745 2.239692 -0.181702 -0.231648 22.957034 0.990861 -0.723677 -6.447603 -0.050307 -0.717533 17.515583 -73.732787 17.220848 -22.221271 -97.739058 -3.498997 0.000001 0.000001 -0.000003 14.218468 -8.210692 -0.218959 0.000001 0.000011 -3.000001 -5.000232 -7.998934 0.000137 5.548087 67.550612 -5.203180 -32.029762 107.814399 12.285467 -0.000000 0.000000 0.000003 5.072463 13.901379 -0.282523 -0.000006 -0.000012 3.003919 -5.000241 7.998746 -0.000172 -2.029337 -176.098451 1.212991 -179.999991 0.000005 -1.053006 175.008393 -2.976686 -0.262869 0.000002 0.000000 0.042986 68.751824 6.902265 2.116842 25.456853 -7.355620 -0.000003 3.377242 174.872869 -0.838946 -0.000005 -0.000005 -1.152370 -4.249780 1.963391 0.175879 -0.000003 -0.000003 -0.037878 68.968826 -6.896948 -2.098310 25.456957 7.355615 -0.000011 
52.970200 -5.280973 91.566406 -2.390653 0.644163 -4.274437 -1.705552 -0.090689 -0.121491 0.591592 -0.180205 -0.236479 2.236662 -0.183138 -0.234355 22.918206 1.001332 -0.720051 -6.409204 -0.052508 -0.714078 17.387006 -73.717952 17.085860 -22.377952 -97.734598 -3.575985 0.000001 0.000001 -0.000002 14.192072 -8.154784 -0.229953 0.000001 0.000011 -3.000002 -5.000233 -7.998934 0.000137 5.530577 67.559136 -5.182371 -32.144889 107.823941 12.366794 -0.000000 0.000000 0.000003 4.905105 13.881065 -0.268280 -0.000007 -0.000012 3.003879 -5.000243 7.998742 -0.000172 -2.028539 -176.105431 1.204923 -179.999991 0.000005 -1.053005 175.009486 -2.968730 -0.263115 0.000002 0.000000 0.042986 68.751830 6.902264 2.117141 25.456853 -7.355619 -0.000003 3.380949 174.868907 -0.841483 -0.000005 -0.000005 -1.152370 -4.248578 1.963194 0.176230 -0.000002 -0.000003 -0.038184 68.968498 -6.896892 -2.097722 25.456957 7.355614 -0.000010 
52.966499 -5.285353 91.567802 -2.391026 0.650059 -4.280987 -1.707040 -0.091193 -0.122521 0.588627 -0.181676 -0.239237 2.233692 -0.184631 -0.237084 22.878772 1.011491 -0.716380 -6.370582 -0.054406 -0.710603 17.258922 -73.703431 16.951326 -22.535448 -97.730322 -3.653859 0.000001 0.000001 -0.000002 14.165999 -8.098980 -0.240845 -0.000001 0.000012 -2.999999 -5.000234 -7.998934 0.000137 5.511999 67.567298 -5.160422 -32.260981 107.833756 12.449446 -0.000000 0.000000 0.000004 4.737735 13.860923 -0.254328 -0.000007 -0.000012 3.003830 -5.000241 7.998746 -0.000173 -2.027727 -176.113436 1.196651 -179.999991 0.000005 -1.053005 175.010675 -2.961754 -0.263443 0.000002 0.000000 0.042986 68.751824 6.902264 2.117440 25.456856 -7.355619 -0.000003 3.384723 174.863921 -0.844146 -0.000005 -0.000005 -1.152370 -4.247117 1.962949 0.176591 -0.000002 -0.000003 -0.038500 68.967972 -6.896935 -2.097061 25.456960 7.355614 -0.000011 
52.974499 -5.286755 91.581902 -2.391367 0.656076 -4.287481 -1.708512 -0.091708 -0.123553 0.585696 -0.183177 -0.242009 2.230762 -0.186155 -0.239826 22.839138 1.021445 -0.712669 -6.331834 -0.056128 -0.707116 17.131200 -73.689026 16.817133 -22.693664 -97.726135 -3.732648 0.000002 0.000001 -0.000003 14.139953 -8.043244 -0.251690 -0.000000 0.000011 -3.000002 -5.000233 -7.998934 0.000139 5.492808 67.575269 -5.137820 -32.375882 107.844582 12.530896 -0.000000 0.000000 0.000004 4.570354 13.840758 -0.240577 -0.000005 -0.000012 3.003780 -5.000241 7.998745 -0.000172 -2.026929 -176.120417 1.188202 -179.999991 0.000005 -1.053005 175.011877 -2.953784 -0.262686 0.000002 0.000000 0.042986 68.751830 6.902265 2.117641 25.456856 -7.355619 -0.000003 3.388516 174.859946 -0.846787 -0.000005 -0.000005 -1.152370 -4.245506 1.962684 0.176957 -0.000002 -0.000004 -0.038823 68.967446 -6.896939 -2.096396 25.456959 7.355615 -0.000011 
52.978699 -5.280805 91.580811 -2.391699 0.662123 -4.293964 -1.709989 -0.092224 -0.124588 0.582775 -0.184687 -0.244785 2.227843 -0.187687 -0.242570 22.799510 1.031358 -0.708946 -6.293046 -0.057804 -0.703625 17.003771 -73.674641 16.683241 -22.851982 -97.722009 -3.811555 0.000001 0.000000 -0.000002 14.114030 -7.987521 -0.262471 0.000000 0.000011 -3.000002 -5.000234 -7.998934 0.000138 5.473475 67.583144 -5.115063 -32.492409 107.854663 12.614164 -0.000002 0.000000 0.000003 4.402995 13.820668 -0.226977 -0.000004 -0.000012 3.003720 -5.000242 7.998744 -0.000173 -2.026117 -176.128422 1.179760 -179.999991 0.000005 -1.053005 175.013106 -2.945829 -0.262940 0.000002 -0.000000 0.042986 68.751728 6.902296 2.117953 25.456854 -7.355620 -0.000003 3.392325 174.855971 -0.849437 -0.000005 -0.000005 -1.152370 -4.243863 1.962409 0.177324 -0.000003 -0.000003 -0.039146 68.966913 -6.896910 -2.095722 25.456960 7.355614 -0.000010 
52.978100 -5.281193 91.573601 -2.392052 0.668111 -4.300471 -1.711471 -0.092736 -0.125621 0.579837 -0.186181 -0.247555 2.224902 -0.189203 -0.245308 22.759876 1.041359 -0.705218 -6.254322 -0.059559 -0.700137 16.876426 -73.659984 16.549456 -23.010544 -97.717727 -3.890730 0.000001 -0.000000 -0.000003 14.088123 -7.931743 -0.273208 0.000002 0.000012 -2.999999 -5.000235 -7.998934 0.000137 5.454415 67.591217 -5.092602 -32.608464 107.864738 12.696858 -0.000001 0.000000 0.000002 4.235682 13.800656 -0.213457 -0.000004 -0.000012 3.003669 -5.000242 7.998747 -0.000173 -2.025309 -176.135416 1.171340 -179.999991 0.000005 -1.053005 175.014322 -2.937859 -0.263178 0.000002 0.000000 0.042986 68.751721 6.902259 2.118348 25.456853 -7.355619 -0.000003 3.396126 174.851012 -0.852130 -0.000005 -0.000005 -1.152370 -4.242283 1.962154 0.177689 -0.000003 -0.000003 -0.039467 68.966387 -6.896915 -2.095057 25.456959 7.355614 -0.000010 
